Coordinates
version=1
nRows=17
nColumns=40
inDegrees=yes

Units are S.I. units (second, meters, Newtons, ...)
Angles are in degrees.

endheader
time	pelvis_tilt	pelvis_list	pelvis_rotation	pelvis_tx	pelvis_ty	pelvis_tz	hip_flexion_r	hip_adduction_r	hip_rotation_r	knee_angle_r	knee_angle_r_beta	ankle_angle_r	subtalar_angle_r	mtp_angle_r	hip_flexion_l	hip_adduction_l	hip_rotation_l	knee_angle_l	knee_angle_l_beta	ankle_angle_l	subtalar_angle_l	mtp_angle_l	lumbar_extension	lumbar_bending	lumbar_rotation	arm_flex_r	arm_add_r	arm_rot_r	elbow_flex_r	pro_sup_r	wrist_flex_r	wrist_dev_r	arm_flex_l	arm_add_l	arm_rot_l	elbow_flex_l	pro_sup_l	wrist_flex_l	wrist_dev_l
     20.43000000	     -3.22145977	     -5.30053237	      2.25523060	      0.94790634	      0.91921416	      0.43364600	     14.19617827	     -5.33933276	     -8.95962959	     55.65204564	     55.65204564	      2.50482925	    -16.42609020	     -7.11483981	     19.80843727	     -2.66964470	      2.24558108	     32.11814365	     32.11814365	     17.78680279	    -15.56279722	      6.36633518	     -9.71779195	      3.76710248	      3.77701047	     36.70142503	    -14.48188552	     -6.33943608	     47.10027514	     45.37532376	      0.00000000	      0.00000000	     14.34783645	    -12.06655795	      9.21549336	     37.85892269	     45.67608246	      0.00000000	      0.00000000
     20.44992857	     -2.98885938	     -5.11321533	      1.62865086	      0.94682925	      0.91737933	      0.43148311	     16.01867327	     -5.84371292	     -8.41570906	     58.59352157	     58.59352157	      1.86048970	    -17.61830650	     -6.58075047	     19.47838651	     -2.41212283	      1.80861189	     32.87386766	     32.87386766	     18.47684662	    -15.98687432	      6.08538646	     -9.99940490	      3.90627654	      3.31169678	     33.23835849	    -13.89898844	     -6.07790487	     45.34205167	     45.41041796	      0.00000000	      0.00000000	     15.48809016	    -12.11685341	      9.12002729	     38.15981728	     45.70656051	      0.00000000	      0.00000000
     20.46985714	     -2.73266239	     -5.06147284	      0.98743523	      0.94577778	      0.91578735	      0.42951031	     17.95121915	     -5.96486609	     -7.66023519	     61.58184252	     61.58184252	      3.19851131	    -17.91195846	     -0.14840658	     19.12235074	     -2.29479801	      1.44407555	     33.66474834	     33.66474834	     19.42827281	    -16.32250469	      6.57142809	    -10.21678219	      4.21376107	      3.21611592	     30.34782972	    -13.56373295	     -5.69110525	     40.88176872	     45.56156251	      0.00000000	      0.00000000	     17.44631171	    -11.76874829	      9.32877911	     36.79672843	     45.72741621	      0.00000000	      0.00000000
     20.48978571	     -2.51870586	     -4.97868330	      0.36676451	      0.94475968	      0.91436392	      0.42756604	     19.74228144	     -6.16034244	     -7.09362513	     63.94003693	     63.94003693	      4.08579482	    -18.17898873	      4.05443219	     18.73859431	     -2.13441282	      1.06109579	     34.31071083	     34.31071083	     20.25086062	    -16.64800215	      6.86704364	    -10.47635566	      4.51065188	      2.94979773	     27.12217682	    -13.15904561	     -5.84304165	     37.57085038	     45.69566130	      0.00000000	      0.00000000	     18.93007036	    -11.70818533	      9.25638362	     36.73325742	     45.78051975	      0.00000000	      0.00000000
     20.50971429	     -2.30235871	     -4.89928491	     -0.26574040	      0.94383463	      0.91344921	      0.42585659	     21.34706300	     -6.25050034	     -6.54402448	     65.60695532	     65.60695532	      4.85482299	    -18.47286822	      7.15528240	     18.18928721	     -1.99006748	      0.64659703	     34.65144103	     34.65144103	     20.93124825	    -16.92666004	      7.08678873	    -10.76333751	      4.82265645	      2.78193649	     23.85520371	    -12.89573479	     -6.14576044	     34.40309151	     45.83262330	      0.00000000	      0.00000000	     20.48248819	    -11.66743557	      9.21160190	     36.69854220	     45.82715670	      0.00000000	      0.00000000
     20.52964286	     -2.13520698	     -4.84899252	     -0.89840846	      0.94295958	      0.91304402	      0.42443947	     22.81385932	     -6.21939341	     -6.06170026	     66.54582714	     66.54582714	      5.62859187	    -18.68373006	      9.40076490	     17.55740064	     -1.89378091	      0.20463146	     34.72212683	     34.72212683	     21.47807762	    -17.12555641	      7.25956415	    -11.02524440	      5.17566319	      2.60729714	     20.52787964	    -12.70018947	     -6.64895379	     31.65789210	     45.96736455	      0.00000000	      0.00000000	     21.94244839	    -11.72881326	      9.10802265	     36.98359896	     45.87698182	      0.00000000	      0.00000000
     20.54957143	     -2.02477081	     -4.79314279	     -1.57461175	      0.94212110	      0.91319387	      0.42338731	     24.11383984	     -6.12285039	     -5.63966226	     66.66055824	     66.66055824	      6.07469867	    -18.84258515	      9.68089016	     16.81975317	     -1.82125026	     -0.31391773	     34.46100892	     34.46100892	     21.81534632	    -17.29001817	      7.28988481	    -11.25765149	      5.53359433	      2.43195648	     16.97117516	    -12.72151479	     -6.73777344	     29.81796131	     46.02540920	      0.00000000	      0.00000000	     23.22120346	    -11.94306192	      8.88732999	     37.78545334	     45.92596251	      0.00000000	      0.00000000
     20.56950000	     -1.95975514	     -4.81416735	     -2.25094392	      0.94131173	      0.91396936	      0.42274681	     25.26038698	     -5.81306755	     -5.27546495	     66.02103476	     66.02103476	      6.73501722	    -18.90837615	     10.05422620	     15.97901960	     -1.85402355	     -0.84392617	     33.90173402	     33.90173402	     22.04873555	    -17.36405240	      7.39386389	    -11.45145492	      5.97226499	      2.22664047	     13.51292335	    -12.76924011	     -6.89503875	     28.05963378	     46.08726201	      0.00000000	      0.00000000	     24.50468303	    -12.24705310	      8.64576077	     38.61378119	     45.97649633	      0.00000000	      0.00000000
     20.58942857	     -2.00628406	     -4.87677519	     -2.95687940	      0.94045566	      0.91520974	      0.42254009	     26.31850627	     -5.32918685	     -4.93377436	     64.62381309	     64.62381309	      7.45308136	    -18.87700752	     10.20746440	     15.12505358	     -1.96337839	     -1.42000055	     33.07808333	     33.07808333	     22.17205858	    -17.33523677	      7.52325237	    -11.53761151	      6.45196901	      1.83639880	     10.21476832	    -12.81926225	     -7.08436659	     26.59328977	     46.14046035	      0.00000000	      0.00000000	     25.67947524	    -12.75773597	      8.37120376	     39.44006505	     46.02778100	      0.00000000	      0.00000000
     20.60935714	     -2.09433651	     -4.94105700	     -3.72825481	      0.93950756	      0.91684387	      0.42281538	     27.22968235	     -4.70400287	     -4.53901220	     62.54339580	     62.54339580	      8.17025454	    -18.75600732	     10.10362396	     14.21011620	     -2.11313207	     -2.10426121	     32.04509738	     32.04509738	     22.14876294	    -17.25385589	      7.61905899	    -11.65651347	      6.91829277	      1.73599826	      6.84572367	    -13.04316316	     -7.42904694	     25.26009283	     46.20318010	      0.00000000	      0.00000000	     26.96836974	    -13.31127480	      8.01712251	     40.65476438	     46.09181768	      0.00000000	      0.00000000
     20.62928571	     -2.28437948	     -5.01405880	     -4.53712841	      0.93850246	      0.91871808	      0.42348528	     28.00137023	     -3.98489998	     -4.16374720	     59.74774085	     59.74774085	      8.65443163	    -18.49077420	      9.40031318	     13.28565648	     -2.30278422	     -2.86671235	     30.78354486	     30.78354486	     21.99249208	    -17.06818451	      7.58388470	    -11.68856098	      7.37930604	      1.59297915	      3.51110255	    -13.26907273	     -7.98690098	     24.35111980	     46.26870660	      0.00000000	      0.00000000	     28.13001801	    -13.99064055	      7.61123236	     42.15034163	     46.16193605	      0.00000000	      0.00000000
     20.64921429	     -2.55625457	     -5.06705120	     -5.38504173	      0.93748486	      0.92059961	      0.42448259	     28.50186341	     -3.31503776	     -3.94046373	     56.10129526	     56.10129526	      7.97861607	    -18.20994810	      5.13443756	     12.34591231	     -2.49489914	     -3.74065765	     29.29975787	     29.29975787	     21.41308496	    -16.91991677	      6.63369145	    -11.69713992	      7.84793870	      1.29620274	      0.00906627	    -13.38791396	    -10.23657170	     24.98295158	     46.43291820	      0.00000000	      0.00000000	     28.82126247	    -15.08797456	      7.09159852	     44.80218296	     46.26394922	      0.00000000	      0.00000000
     20.66914286	     -2.92281334	     -5.13932933	     -6.24521916	      0.93634830	      0.92243128	      0.42587398	     28.99831240	     -2.49391821	     -3.62483186	     52.20710456	     52.20710456	      8.40731094	    -17.21325600	      4.83678532	     11.53491683	     -2.71521113	     -4.58107082	     27.90124165	     27.90124165	     21.26698293	    -16.59559722	      6.87597271	    -11.52375271	      8.30757749	      0.91095204	     -2.72250901	    -13.71979994	    -10.48474494	     24.05131458	     46.47288522	      0.00000000	      0.00000000	     30.06519914	    -16.08835647	      6.72775029	     45.60990801	     46.32042808	      0.00000000	      0.00000000
     20.68907143	     -3.18205423	     -5.13050848	     -7.16892627	      0.93533007	      0.92413390	      0.42756518	     28.93226468	     -1.86618217	     -3.51565009	     47.41588031	     47.41588031	      6.74597142	    -16.38674544	     -1.51109725	     10.51781413	     -2.85611186	     -5.61336607	     26.32194643	     26.32194643	     20.63716759	    -16.33017233	      5.85433598	    -11.64645191	      8.65300832	      1.05965528	     -6.09347877	    -13.87731023	    -12.90550364	     24.92467995	     46.63317115	      0.00000000	      0.00000000	     31.03932177	    -17.10880040	      6.29875780	     48.34830960	     46.43103872	      0.00000000	      0.00000000
     20.70900000	     -3.60235721	     -5.12825280	     -8.06521254	      0.93422546	      0.92536704	      0.42957262	     29.02476047	     -1.14786537	     -3.37871463	     42.80911403	     42.80911403	      6.97153662	    -14.14908088	     -1.52313672	      9.80951856	     -3.01844997	     -6.53379968	     25.03107880	     25.03107880	     20.55586272	    -15.92606247	      6.05210167	    -11.43063342	      9.00922836	      0.79729381	     -8.42954603	    -14.21442793	    -13.15196011	     24.19510388	     46.66595376	      0.00000000	      0.00000000	     32.36316684	    -18.20353656	      5.89645099	     49.15675115	     46.49041943	      0.00000000	      0.00000000
     20.72892857	     -3.85106676	     -5.01571171	     -8.97997520	      0.93333984	      0.92626007	      0.43184186	     28.67948488	     -0.71569443	     -3.61338543	     37.91448021	     37.91448021	      6.40892021	    -11.15008999	     -3.75873809	      8.91486103	     -3.05606838	     -7.60865558	     23.73951407	     23.73951407	     20.21154512	    -15.49637268	      5.32589907	    -11.54129112	      9.18194553	      0.93498944	    -11.26563178	    -14.31280785	    -14.89178171	     25.23752055	     46.74258569	      0.00000000	      0.00000000	     33.33044538	    -19.29724533	      5.25295884	     51.87613266	     46.61145781	      0.00000000	      0.00000000
     20.74885714	     -4.08543142	     -4.88717230	     -9.87023734	      0.93263755	      0.92674802	      0.43443720	     28.22840415	     -0.24763743	     -3.85705401	     33.21036297	     33.21036297	      6.26674121	     -7.66790884	     -3.55391115	      8.07987393	     -3.06244299	     -8.60606982	     22.62974121	     22.62974121	     20.20755842	    -15.05499613	      5.27652044	    -11.52160734	      9.30173821	      0.93576320	    -13.22127480	    -14.49967986	    -15.31541285	     24.84946907	     46.77600114	      0.00000000	      0.00000000	     34.70889316	    -20.32115334	      4.78474857	     52.89598048	     46.68142797	      0.00000000	      0.00000000
